<?xml version="1.0" standalone="no"?>
<!DOCTYPE svg PUBLIC "-//W3C//DTD SVG 20010904//EN"
 "http://www.w3.org/TR/2001/REC-SVG-20010904/DTD/svg10.dtd">
<svg version="1.0" xmlns="http://www.w3.org/2000/svg"
 width="300.000000pt" height="300.000000pt" viewBox="0 0 300.000000 300.000000"
 preserveAspectRatio="xMidYMid meet">

<g transform="translate(0.000000,300.000000) scale(0.100000,-0.100000)"
fill="#000000" stroke="none">
<path d="M952 2285 l-34 -94 64 -75 c34 -41 66 -72 69 -68 4 4 21 46 39 95
l31 87 -62 73 c-34 39 -65 73 -68 74 -3 2 -21 -40 -39 -92z"/>
<path d="M700 2346 c0 -2 -15 -45 -34 -95 l-34 -92 36 -42 c21 -24 50 -58 65
-77 34 -40 34 -40 73 75 l28 82 -63 77 c-58 70 -71 83 -71 72z"/>
<path d="M1102 2109 c-17 -50 -29 -96 -24 -103 22 -37 118 -144 123 -138 4 4
21 46 38 94 l32 87 -63 76 c-34 41 -65 75 -68 75 -3 0 -20 -41 -38 -91z"/>
<path d="M1256 1938 c-16 -46 -31 -88 -33 -93 -2 -6 26 -46 62 -89 l65 -78 11
29 c6 15 22 59 35 97 l24 68 -62 74 c-33 41 -64 74 -67 74 -3 0 -19 -37 -35
-82z"/>
<path d="M1026 1897 c-16 -45 -31 -87 -33 -93 -2 -6 26 -46 62 -88 61 -73 66
-76 74 -54 5 13 20 56 35 96 l26 73 -62 74 c-35 41 -65 75 -68 75 -3 0 -18
-37 -34 -83z"/>
<path d="M792 1849 c-17 -50 -29 -96 -24 -103 22 -37 118 -144 124 -138 3 4
20 47 37 95 l31 89 -61 71 c-34 40 -65 73 -68 75 -4 1 -21 -39 -39 -89z"/>
<path d="M1402 1749 l-32 -91 62 -78 c35 -43 66 -75 69 -71 4 3 21 46 38 95
l32 89 -59 70 c-32 39 -63 72 -68 74 -5 2 -24 -38 -42 -88z"/>
<path d="M2363 1823 l-81 -16 -35 -96 c-19 -53 -34 -97 -32 -98 5 -7 192 30
201 40 7 7 23 44 37 82 14 39 28 78 32 88 9 21 -7 21 -122 0z"/>
<path d="M1176 1718 c-16 -46 -31 -88 -33 -93 -2 -6 26 -46 62 -89 61 -74 65
-77 74 -54 4 12 20 56 35 96 l26 74 -61 74 c-34 41 -65 74 -68 74 -3 0 -19
-37 -35 -82z"/>
<path d="M2133 1783 l-81 -16 -35 -96 c-19 -53 -33 -97 -32 -99 2 -3 196 29
202 33 1 0 18 45 38 98 40 113 48 106 -92 80z"/>
<path d="M946 1678 c-16 -46 -31 -88 -33 -93 -2 -6 26 -46 62 -89 l65 -78 10
29 c6 15 22 58 36 96 l26 67 -63 75 c-35 41 -66 75 -69 75 -3 0 -18 -37 -34
-82z"/>
<path d="M1903 1742 l-82 -15 -34 -96 c-19 -53 -34 -97 -32 -99 2 -3 198 28
202 32 1 1 18 46 38 99 40 112 49 105 -92 79z"/>
<path d="M528 1643 l-35 -98 60 -70 c33 -38 63 -73 66 -77 7 -8 71 158 71 182
0 10 -51 75 -115 148 -9 10 -19 -8 -47 -85z"/>
<path d="M1673 1702 l-82 -15 -34 -96 c-19 -53 -33 -98 -32 -100 3 -3 196 29
202 33 1 1 18 46 38 99 40 112 49 105 -92 79z"/>
<path d="M1322 1529 l-32 -91 62 -78 c35 -43 66 -75 69 -71 3 3 20 46 38 95
l31 89 -58 70 c-32 39 -63 72 -68 74 -5 2 -24 -38 -42 -88z"/>
<path d="M2279 1603 l-77 -15 -35 -96 c-19 -54 -34 -98 -33 -99 6 -7 193 31
202 41 6 6 25 50 42 99 l32 87 -28 -1 c-15 -1 -61 -8 -103 -16z"/>
<path d="M1096 1498 c-16 -46 -31 -88 -33 -93 -2 -6 26 -46 62 -89 61 -74 65
-77 74 -54 60 160 62 169 44 192 -48 59 -107 126 -112 126 -4 0 -19 -37 -35
-82z"/>
<path d="M2055 1563 c-43 -8 -80 -15 -82 -17 -7 -7 -72 -196 -67 -196 31 0
192 35 200 44 6 6 25 50 42 99 l32 87 -23 -1 c-12 -1 -58 -8 -102 -16z"/>
<path d="M862 1449 c-27 -76 -30 -95 -20 -108 7 -9 37 -44 66 -79 l52 -63 11
28 c5 15 21 58 35 95 l26 68 -63 75 c-34 41 -65 75 -68 75 -4 0 -21 -41 -39
-91z"/>
<path d="M1595 1483 c-44 -9 -81 -17 -83 -18 -2 -1 -19 -46 -38 -100 l-35 -98
28 6 c15 3 63 11 105 18 53 9 78 17 81 28 3 9 19 53 36 99 l30 82 -22 -1 c-12
-1 -58 -8 -102 -16z"/>
<path d="M1271 1388 c-5 -13 -20 -56 -35 -97 l-27 -74 59 -71 c33 -39 63 -71
68 -71 7 0 71 154 73 175 1 3 -28 40 -64 83 -61 73 -66 77 -74 55z"/>
<path d="M2205 1383 c-43 -8 -80 -15 -81 -16 -1 -1 -17 -46 -37 -100 l-35 -99
26 5 c15 3 62 11 104 18 l77 12 32 86 c17 47 34 92 37 99 5 15 -18 14 -123 -5z"/>
<path d="M1815 1315 c-5 -2 -42 -9 -82 -15 l-71 -12 -36 -96 c-19 -53 -34 -98
-32 -100 2 -2 47 5 100 14 109 20 101 12 146 133 l29 81 -22 -1 c-12 0 -26 -2
-32 -4z"/>
<path d="M1508 1263 l-76 -15 -36 -96 c-19 -53 -34 -97 -33 -99 2 -1 47 5 101
15 110 19 101 11 146 131 l29 81 -27 -1 c-15 -1 -62 -8 -104 -16z"/>
<path d="M970 1160 c-27 -78 -30 -93 -18 -108 7 -9 36 -45 65 -79 l52 -62 31
82 c17 45 32 89 33 98 2 17 -108 159 -123 159 -4 0 -22 -41 -40 -90z"/>
<path d="M1955 1200 c-50 -9 -96 -19 -102 -23 -10 -6 -73 -167 -73 -186 0 -9
178 21 197 32 11 7 78 186 72 191 -2 1 -45 -5 -94 -14z"/>
<path d="M1190 1163 c-6 -15 -22 -58 -36 -95 l-26 -68 63 -75 c34 -41 64 -75
68 -75 3 0 19 37 35 83 16 45 31 87 33 92 2 6 -26 46 -62 89 l-65 78 -10 -29z"/>
<path d="M2198 1111 c-48 -9 -92 -20 -97 -26 -10 -10 -71 -169 -71 -184 0 -8
180 21 197 32 11 7 73 168 73 188 0 5 -3 8 -7 8 -5 -1 -47 -9 -95 -18z"/>
<path d="M1658 1083 l-76 -15 -35 -96 c-19 -54 -34 -98 -33 -99 6 -7 193 31
202 41 6 6 25 50 42 99 l32 87 -28 -1 c-15 -1 -61 -8 -104 -16z"/>
<path d="M1435 1043 c-43 -8 -81 -15 -83 -17 -1 -2 -19 -47 -38 -101 -34 -96
-34 -97 -12 -92 13 3 58 11 100 18 43 6 82 17 86 23 5 6 23 50 40 99 36 101
44 95 -93 70z"/>
<path d="M844 580 c-43 -18 -54 -48 -54 -152 0 -107 10 -140 47 -157 14 -6 81
-11 157 -11 120 0 136 2 160 21 34 26 38 89 6 89 -15 0 -20 -7 -20 -24 0 -48
-21 -56 -151 -56 -156 0 -159 2 -159 133 0 129 -1 128 166 125 l129 -3 10 -32
c12 -44 35 -43 35 0 0 62 -23 72 -174 74 -72 1 -141 -2 -152 -7z"/>
<path d="M1610 420 c0 -152 1 -160 20 -160 16 0 19 8 22 63 l3 62 143 5 c168
6 172 8 172 100 0 88 -5 90 -198 90 l-162 0 0 -160z m308 118 c7 -7 12 -31 12
-55 0 -58 -15 -64 -157 -61 l-118 3 -3 63 -3 62 129 0 c86 0 132 -4 140 -12z"/>
<path d="M1250 395 c0 -127 7 -135 124 -135 62 0 89 4 100 15 19 19 26 19 26
0 0 -8 7 -15 15 -15 12 0 15 19 15 115 0 108 -1 115 -20 115 -18 0 -20 -7 -20
-84 0 -97 -10 -115 -68 -117 -126 -5 -142 8 -142 122 0 64 -3 79 -15 79 -12 0
-15 -17 -15 -95z"/>
<path d="M2000 486 c0 -3 30 -58 66 -122 73 -131 74 -142 10 -158 -40 -10 -44
-33 -5 -28 66 8 67 8 141 155 40 78 74 145 76 150 2 4 -6 7 -18 7 -17 0 -30
-19 -67 -100 -25 -55 -49 -100 -52 -100 -3 0 -30 45 -59 100 -39 74 -58 100
-73 100 -10 0 -19 -2 -19 -4z"/>
</g>
</svg>
